<svg width="136" height="135" viewBox="0 0 136 135" fill="none" xmlns="http://www.w3.org/2000/svg">
<g clip-path="url(#clip0_606_232)">
<path d="M36.8311 106.362V125.112C36.8311 129.481 40.3727 133.022 44.7412 133.022C49.1097 133.022 52.6514 129.481 52.6514 125.112V106.362H36.8311Z" fill="#00B27A"/>
<path d="M74.6384 106.362V125.112C74.6384 129.481 78.1801 133.022 82.5486 133.022C86.9171 133.022 90.4587 129.481 90.4587 125.112V106.362H74.6384Z" fill="#00B27A"/>
<path d="M91.9707 62.1353C85.3116 62.9256 78.7156 64.4269 72.2789 66.6354C63.8611 69.5247 55.6161 61.9906 57.5143 53.4405C59.7605 43.3213 61.2927 36.3514 62.3408 31.5138C62.3429 31.5033 62.3456 31.4927 62.3477 31.4822C63.9334 24.1618 64.4069 21.74 64.5649 20.6927C65.5036 14.449 62.8718 10.0622 61.2197 8.00323C58.164 4.19476 53.5426 1.97754 48.6602 1.97754C41.8838 1.97754 36.6629 6.26564 34.0188 12.1463H28.9555C20.0747 12.1463 12.6289 19.2417 12.6289 28.1224C12.6289 36.7617 18.7427 42.9374 26.4809 44.1495C25.1905 50.1804 22.8602 60.7255 22.8602 73.5639C22.8602 84.0317 25.3015 91.5316 30.2754 100.742C40.4125 119.513 62.6367 128.135 82.7295 121.241C87.565 119.582 92.5365 118.526 97.5505 118.078C103.298 118.078 108.649 121.01 111.741 125.855L114.964 130.906C117.418 134.751 123.371 133.013 123.371 128.452V92.2235C123.371 73.0284 109.697 60.0318 91.9707 62.1353Z" fill="#5FD9B3"/>
<path d="M119.006 114.474C115.433 112.584 113.57 110.209 111.741 107.135C108.649 102.29 103.298 99.3576 97.5504 99.3576C92.5196 99.8072 90.1684 101.136 85.3661 102.784C80.2884 104.527 74.2176 104.32 68.3509 104.019C63.3314 103.762 58.653 101.403 55.4615 97.5206C52.0678 93.3915 50.7009 87.9599 51.7359 82.7162L57.4177 53.9307C57.4467 53.7677 57.4781 53.6048 57.5142 53.441C59.7604 43.3218 61.2926 36.3519 62.3407 31.5143C62.3429 31.5038 62.3455 31.4932 62.3476 31.4827C63.9333 24.1624 64.4069 21.7405 64.5648 20.6932C65.5035 14.4495 62.8718 10.0628 61.2196 8.00376C58.1639 4.19476 53.5425 1.97754 48.6601 1.97754C41.8838 1.97754 36.6628 6.26564 34.0187 12.1463H28.8879C19.9349 12.1463 12.4825 19.4727 12.6312 28.4246C12.772 36.9054 18.833 42.9514 26.4806 44.1495C25.1902 50.1804 22.8598 60.7255 22.8598 73.5639C22.8598 84.0317 25.3012 91.5316 30.2751 100.742C35.3223 110.088 43.3661 116.917 52.6511 120.569L52.6521 120.566C62.0156 124.249 72.6403 124.702 82.7292 121.241C87.5646 119.582 92.5362 118.526 97.5502 118.078C103.298 118.078 108.648 121.01 111.74 125.855L114.964 130.906C117.418 134.751 123.371 133.013 123.371 128.452V115.544C121.635 115.544 120.369 115.196 119.006 114.474Z" fill="#00CE8E"/>
<path d="M46.955 20.6938C42.6804 20.6938 39.2152 23.4534 39.2152 26.8576C39.2152 30.2619 42.6806 33.0215 46.955 33.0215C51.2297 33.0215 54.6951 30.2619 54.6951 26.8576C54.6951 23.4534 51.2297 20.6938 46.955 20.6938Z" fill="#FF8E9E"/>
<path d="M60.5615 103.726C56.1927 103.726 52.6514 107.267 52.6514 111.636V124.948C52.6514 129.258 56.0306 132.901 60.339 133.02C64.8093 133.142 68.4717 129.555 68.4717 125.112V111.636C68.4717 107.267 64.9303 103.726 60.5615 103.726Z" fill="#00CE8E"/>
<path d="M98.3689 103.726C94.0001 103.726 90.4587 107.267 90.4587 111.636V124.948C90.4587 129.258 93.838 132.901 98.1464 133.02C102.617 133.142 106.279 129.555 106.279 125.112V111.636C106.279 107.267 102.737 103.726 98.3689 103.726Z" fill="#00CE8E"/>
<path d="M40.4663 17.7599V20.9239C40.4663 22.0163 41.3515 22.9015 42.4438 22.9015C43.5362 22.9015 44.4214 22.0163 44.4214 20.9239V17.7599C44.4214 16.6675 43.5362 15.7823 42.4438 15.7823C41.3515 15.7823 40.4663 16.6678 40.4663 17.7599Z" fill="black"/>
<path d="M20.0162 23.1533L17.7789 25.3903C17.0064 26.1626 17.0064 27.4148 17.7787 28.1868C18.5509 28.9591 19.8029 28.9594 20.5752 28.1871L22.8124 25.9501C23.585 25.1778 23.585 23.9256 22.8127 23.1536C22.0401 22.3813 20.7879 22.381 20.0162 23.1533Z" fill="black"/>
<path d="M119.447 72.1651C118.823 71.2689 117.591 71.0477 116.694 71.6721C115.798 72.2959 115.577 73.5286 116.201 74.4248C119.598 79.3043 121.394 85.459 121.394 92.2232V128.452C121.394 130.136 120.036 131.045 118.759 131.045C118.251 131.045 117.299 130.889 116.631 129.843L113.408 124.791C112.071 122.697 110.304 120.868 108.257 119.449V111.635C108.257 110.543 107.371 109.658 106.279 109.658C105.187 109.658 104.302 110.543 104.302 111.635V125.112C104.302 128.451 101.556 131.132 98.2007 131.043C95.0221 130.955 92.4363 128.221 92.4363 124.948V111.636C92.4363 110.543 91.5512 109.658 90.4588 109.658C89.3664 109.658 88.4812 110.543 88.4812 111.636V117.541C81.5417 119.153 78.6146 121.209 70.4492 121.578V111.636C70.4492 110.544 69.5641 109.659 68.4717 109.659C67.3793 109.659 66.4942 110.544 66.4942 111.636V125.112C66.4942 128.47 63.7293 131.132 60.3933 131.043C57.2148 130.955 54.6289 128.221 54.6289 124.948C54.6289 122.221 54.6289 114.389 54.6289 111.636C54.6289 110.543 53.7438 109.658 52.6514 109.658C51.559 109.658 50.6739 110.543 50.6739 111.636V117.552C42.9712 113.878 36.3356 107.802 32.0154 99.8027C26.7828 90.1133 24.8374 83.0018 24.8374 73.5639C24.8374 61.9726 26.7686 52.2861 28.0798 46.127H37.1427C38.2351 46.127 39.1203 45.2419 39.1203 44.1495C39.1203 43.0571 38.2351 42.1719 37.1427 42.1719H26.6518C19.4417 40.9823 14.6064 35.3537 14.6064 28.1224C14.6064 20.4037 21.0435 14.1238 28.9555 14.1238H33.1995L33.6625 14.5869C34.4354 15.3591 35.687 15.3589 36.4593 14.5869C37.2316 13.8143 37.2316 12.5624 36.4593 11.7901L36.42 11.7508C39.0691 6.84466 43.5616 3.95508 48.6602 3.95508C57.1894 3.95508 63.9495 11.4755 62.6092 20.3977C62.0932 23.8193 56.3296 49.6499 55.5834 53.012C53.352 63.0751 63.039 71.8983 72.9204 68.5056C79.1834 66.357 85.671 64.8744 92.204 64.0989C99.615 63.2185 106.201 65.1631 111.207 69.1058C112.065 69.7816 113.308 69.6342 113.984 68.7759C114.659 67.9179 114.512 66.6744 113.654 65.9989C107.418 61.087 99.6499 59.2305 91.7376 60.1715C84.9272 60.9794 78.1643 62.525 71.6368 64.7647C64.6551 67.1614 57.8916 60.8726 59.4446 53.8687C60.2478 50.2509 65.9768 24.5898 66.5205 20.9864C68.2294 9.61453 59.5538 0 48.6602 0C41.9529 0 36.0989 3.77605 32.7795 10.1688H28.9555C18.8626 10.1688 10.6514 18.2229 10.6514 28.1224C10.6514 36.5792 16.0983 43.5333 24.1329 45.6732C22.7913 52.0024 20.8826 61.796 20.8826 73.5637C20.8826 85.1381 23.942 93.1753 28.5354 101.682C30.3287 105.002 32.4359 107.943 34.8535 110.613V115.119C34.8535 116.212 35.7387 117.097 36.8311 117.097C37.9235 117.097 38.8086 116.212 38.8086 115.119V114.476C42.3389 117.529 46.3317 120.032 50.6739 121.89V125.112C50.6739 128.383 48.0124 131.045 44.7412 131.045C41.4701 131.045 38.8086 128.383 38.8086 125.112V123.03C38.8086 121.937 37.9235 121.052 36.8311 121.052C35.7387 121.052 34.8535 121.937 34.8535 123.03V125.112C34.8535 130.564 39.289 135 44.7412 135C47.995 135 50.8858 133.42 52.6888 130.987C54.4989 133.413 57.3508 135 60.5652 135C65.8856 135 70.2188 130.804 70.439 125.537C71.1817 125.506 71.925 125.455 72.668 125.388C72.8147 130.713 77.1887 135 82.5486 135C85.8023 135 88.6932 133.42 90.4962 130.987C92.3061 133.413 95.1582 135 98.3724 135C103.39 135 108.256 131.191 108.256 124.625C109.581 126.001 109.822 126.525 113.297 131.971C114.526 133.896 116.517 135 118.759 135C121.998 135 125.348 132.551 125.348 128.453V92.2235C125.349 84.6471 123.308 77.7115 119.447 72.1651ZM88.4812 125.112C88.4812 128.383 85.8197 131.045 82.5486 131.045C79.4964 131.045 76.616 128.688 76.616 124.861C82.0157 123.893 83.183 122.922 88.4812 121.608C88.4812 125.813 88.4802 124.795 88.4855 125.112H88.4812Z" fill="black"/>
</g>
<defs>
<clipPath id="clip0_606_232">
<rect width="135" height="135" fill="white" transform="translate(0.5)"/>
</clipPath>
</defs>
</svg>
